<svg width="13" height="12" viewBox="0 0 13 12" fill="none" xmlns="http://www.w3.org/2000/svg">
<path d="M6.99853 0.528336C6.94787 0.441005 6.87516 0.368515 6.78767 0.318125C6.70019 0.267734 6.601 0.241211 6.50004 0.241211C6.39908 0.241211 6.29989 0.267734 6.2124 0.318125C6.12492 0.368515 6.0522 0.441005 6.00155 0.528336L4.43749 3.22423C4.38331 3.31747 4.3089 3.39736 4.21973 3.45801C4.13056 3.51865 4.02891 3.5585 3.92228 3.57462L0.990682 4.01721C0.498528 4.09213 0.32564 4.71337 0.709451 5.03148L2.89302 6.83989C3.09473 7.00759 3.18981 7.27211 3.14083 7.52971L2.56972 10.5293C2.54944 10.6358 2.55963 10.7459 2.59912 10.8469C2.6386 10.9479 2.70579 11.0357 2.79294 11.1003C2.8801 11.1648 2.9837 11.2034 3.09183 11.2117C3.19995 11.22 3.30822 11.1976 3.40419 11.1471L6.16464 9.69369C6.26806 9.63928 6.38317 9.61084 6.50004 9.61084C6.6169 9.61084 6.73201 9.63928 6.83544 9.69369L9.59588 11.1471C9.69185 11.1976 9.80012 11.22 9.90825 11.2117C10.0164 11.2034 10.12 11.1648 10.2071 11.1003C10.2943 11.0357 10.3615 10.9479 10.401 10.8469C10.4404 10.7459 10.4506 10.6358 10.4304 10.5293L9.85925 7.52971C9.83504 7.40308 9.84527 7.27226 9.88885 7.15093C9.93244 7.02959 10.0078 6.92217 10.1071 6.83989L12.2912 5.03091C12.6744 4.71395 12.5015 4.09155 12.0088 4.01721L9.07837 3.57462C8.97164 3.55858 8.86988 3.51877 8.7806 3.45812C8.69133 3.39747 8.61682 3.31754 8.56259 3.22423L6.99853 0.528336Z" fill="#666666"/>
</svg>
