<svg width="10" height="13" viewBox="0 0 10 13" fill="none" xmlns="http://www.w3.org/2000/svg">
<path d="M8.75 4.25212H8.125V3.06164C8.125 1.41878 6.725 0.0854492 5 0.0854492C3.275 0.0854492 1.875 1.41878 1.875 3.06164V4.25212H1.25C0.5625 4.25212 0 4.78783 0 5.44259V11.395C0 12.0497 0.5625 12.5854 1.25 12.5854H8.75C9.4375 12.5854 10 12.0497 10 11.395V5.44259C10 4.78783 9.4375 4.25212 8.75 4.25212ZM5 9.60926C4.3125 9.60926 3.75 9.07354 3.75 8.41878C3.75 7.76402 4.3125 7.22831 5 7.22831C5.6875 7.22831 6.25 7.76402 6.25 8.41878C6.25 9.07354 5.6875 9.60926 5 9.60926ZM3.125 4.25212V3.06164C3.125 2.07354 3.9625 1.27593 5 1.27593C6.0375 1.27593 6.875 2.07354 6.875 3.06164V4.25212H3.125Z" fill="#313234"/>
</svg>
