<svg width="32" height="32" viewBox="0 0 32 32" fill="none" xmlns="http://www.w3.org/2000/svg">
<path d="M15.5011 17.2923C14.9177 16.3495 15.8382 16.6014 16.0038 16.6758C21.1909 18.3923 26.7216 16.6213 31.5189 13.7555C28.8836 2.90171 18.5163 -1.25467 10.5129 1.54016C2.8389 4.21998 -2.27713 12.5362 1.01675 21.308C3.63723 28.2863 13.0619 33.638 22.3894 29.6484C25.8673 28.0115 28.3007 25.7238 29.4675 23.0631C21.4989 24.0818 16.8224 19.3445 15.5011 17.2923ZM13.8319 14.4356C13.7508 14.4639 13.6437 14.5454 13.6178 14.5986L11.8732 16.7953C11.8067 16.8626 11.7402 16.93 11.659 16.9583C11.5779 16.9866 11.4968 17.0149 11.401 17.0043C11.3053 16.9936 11.2095 16.983 11.1396 16.9192C11.0698 16.8554 10.9999 16.7916 10.9707 16.7136L9.86813 14.1441C9.83884 14.0661 9.75435 13.9633 9.6845 13.8995C9.61468 13.8357 9.50427 13.786 9.44906 13.7612L6.82392 13.0022C6.371 12.8958 6.28776 12.3075 6.70469 12.0737L8.90771 10.7311C9.01478 10.6496 9.08126 10.5823 9.1331 10.476C9.18497 10.3697 9.19624 10.2776 9.1929 10.1465L9.04133 7.42121C9.05264 7.32907 9.06391 7.23696 9.11575 7.13063C9.16762 7.02434 9.2341 6.95701 9.31522 6.92868C9.39638 6.90034 9.51806 6.85786 9.61383 6.86852C9.7096 6.87918 9.80537 6.88984 9.87522 6.95364L12.2219 8.55954C12.2917 8.62335 12.4021 8.673 12.5385 8.66948C12.6342 8.68014 12.7706 8.67661 12.8517 8.64828L15.5695 7.69921C15.6507 7.67087 15.787 7.66735 15.8828 7.67801C15.9786 7.68867 16.089 7.73829 16.1588 7.8021C16.2287 7.86591 16.2579 7.94389 16.3019 8.06085C16.3311 8.1388 16.3345 8.26994 16.268 8.33727L15.3661 10.9453C15.2624 11.1579 15.3502 11.3918 15.5192 11.5974L17.3126 13.4406C17.6212 13.7738 17.4025 14.2912 16.953 14.3159L14.2116 14.3471C13.9942 14.3789 13.913 14.4073 13.8319 14.4356Z" fill="#5E48DB"/>
</svg>
