<svg width="13" height="12" viewBox="0 0 13 12" fill="none" xmlns="http://www.w3.org/2000/svg">
<path d="M6.99853 0.495133C6.94787 0.407802 6.87516 0.335312 6.78767 0.284922C6.70019 0.234531 6.601 0.208008 6.50004 0.208008C6.39908 0.208008 6.29989 0.234531 6.2124 0.284922C6.12492 0.335312 6.0522 0.407802 6.00155 0.495133L4.43749 3.19103C4.38331 3.28427 4.3089 3.36416 4.21973 3.4248C4.13056 3.48545 4.02891 3.5253 3.92228 3.54141L0.990682 3.98401C0.498528 4.05892 0.32564 4.68017 0.709451 4.99828L2.89302 6.80669C3.09473 6.97439 3.18981 7.23891 3.14083 7.49651L2.56972 10.4961C2.54944 10.6026 2.55963 10.7127 2.59912 10.8137C2.6386 10.9147 2.70579 11.0025 2.79294 11.0671C2.8801 11.1316 2.9837 11.1702 3.09183 11.1785C3.19995 11.1868 3.30822 11.1644 3.40419 11.1139L6.16464 9.66049C6.26806 9.60607 6.38317 9.57764 6.50004 9.57764C6.6169 9.57764 6.73201 9.60607 6.83544 9.66049L9.59588 11.1139C9.69185 11.1644 9.80012 11.1868 9.90825 11.1785C10.0164 11.1702 10.12 11.1316 10.2071 11.0671C10.2943 11.0025 10.3615 10.9147 10.401 10.8137C10.4404 10.7127 10.4506 10.6026 10.4304 10.4961L9.85925 7.49651C9.83504 7.36987 9.84527 7.23906 9.88885 7.11772C9.93244 6.99639 10.0078 6.88897 10.1071 6.80669L12.2912 4.9977C12.6744 4.68074 12.5015 4.05835 12.0088 3.98401L9.07837 3.54141C8.97164 3.52538 8.86988 3.48557 8.7806 3.42492C8.69133 3.36427 8.61682 3.28434 8.56259 3.19103L6.99853 0.495133Z" fill="#45359C"/>
</svg>
